<svg xmlns="http://www.w3.org/2000/svg" viewBox="0 0 400 500" width="100%" height="100%">
  <defs>
    <style>
      .bg-dark { fill: #111215; }
      .gold-fill { fill: #C5AC86; }
      .gold-stroke { stroke: #C5AC86; fill: none; }
      .text-serif { font-family: 'Times New Roman', Times, serif; fill: #C5AC86; text-anchor: middle; }
    </style>
  </defs>

  <rect width="400" height="500" class="bg-dark"/>

  <path d="M 50 60 L 350 60 L 350 250 C 350 380 200 460 200 460 C 200 460 50 380 50 250 Z" class="gold-stroke" stroke-width="1.5" />
  
  <path d="M 58 68 L 342 68 L 342 250 C 342 372 200 448 200 448 C 200 448 58 372 58 250 Z" class="gold-stroke" stroke-width="1" />

  <text x="200" y="145" class="text-serif" font-size="72" letter-spacing="5">ABES</text>

  <line x1="58" y1="165" x2="342" y2="165" class="gold-stroke" stroke-width="1" />

  <g transform="translate(0, -5)">
    <path d="M 98 280 A 102 102 0 0 1 302 280" class="gold-stroke" stroke-width="16" />
    <path d="M 98 280 A 102 102 0 0 1 302 280" stroke="#111215" stroke-width="18" stroke-dasharray="6 15" fill="none" />
    <path d="M 90 280 A 110 110 0 0 1 310 280" class="gold-stroke" stroke-width="2" stroke-dasharray="21 0" />
    
    <path d="M 120 280 A 80 80 0 0 1 280 280 Z" class="gold-fill" />
    
    <g fill="#111215">
      <path d="M 194 270 C 194 270 180 240 200 223 C 220 240 206 270 206 270 Z" />
      <path d="M 189 271 C 189 271 160 255 160 235 C 180 240 192 260 192 260 Z" />
      <path d="M 211 271 C 211 271 240 255 240 235 C 220 240 208 260 208 260 Z" />
      <path d="M 183 275 C 183 275 140 270 135 255 C 160 255 183 266 183 266 Z" />
      <path d="M 217 275 C 217 275 260 270 265 255 C 240 255 217 266 217 266 Z" />
      
      <path d="M 120 282 Q 160 270 200 283 Q 240 270 280 282 L 280 285 Q 240 273 200 286 Q 160 273 120 285 Z" />
      <path d="M 130 275 Q 165 263 200 278 Q 235 263 270 275 L 270 278 Q 235 268 200 281 Q 165 268 130 278 Z" />
    </g>

    <rect x="110" y="284" width="180" height="4" class="gold-fill" />
  </g>

  <text x="200" y="325" class="text-serif" font-size="34" letter-spacing="4">ABES</text>
  <text x="200" y="352" class="text-serif" font-size="17" letter-spacing="5">AUTONOMY</text>

  <line x1="135" y1="370" x2="190" y2="370" class="gold-stroke" stroke-width="1" />
  <polygon points="200,366 204,370 200,374 196,370" class="gold-fill" />
  <line x1="210" y1="370" x2="265" y2="370" class="gold-stroke" stroke-width="1" />

  <text x="200" y="400" class="text-serif" font-size="18" letter-spacing="1">Estd. 2025</text>
</svg>
